<svg xmlns="http://www.w3.org/2000/svg" viewBox="0 0 800 420" font-family="Segoe UI, sans-serif">
<rect width="800" height="420" fill="#0d1117" rx="8"/>
<text x="64" y="30" fill="#e6edf3" font-size="17" font-weight="700">★ Star History — timoncool/YuE2-Studio</text>
<text x="776" y="30" fill="#e6edf3" font-size="14" text-anchor="end">514 stars · updated 2026-10-10</text>
<line x1="64" y1="364.0" x2="776" y2="364.0" stroke="#30363d" stroke-width="1"/><text x="54" y="368.0" fill="#e6edf3" font-size="13" text-anchor="end">0</text><line x1="64" y1="285.3" x2="776" y2="285.3" stroke="#30363d" stroke-width="1"/><text x="54" y="289.3" fill="#e6edf3" font-size="13" text-anchor="end">128</text><line x1="64" y1="206.0" x2="776" y2="206.0" stroke="#30363d" stroke-width="1"/><text x="54" y="210.0" fill="#e6edf3" font-size="13" text-anchor="end">257</text><line x1="64" y1="126.7" x2="776" y2="126.7" stroke="#30363d" stroke-width="1"/><text x="54" y="130.7" fill="#e6edf3" font-size="13" text-anchor="end">386</text><line x1="64" y1="48.0" x2="776" y2="48.0" stroke="#30363d" stroke-width="1"/><text x="54" y="52.0" fill="#e6edf3" font-size="13" text-anchor="end">514</text>
<path d="M64.0,364.0 L64.0,363.4 L69.4,362.8 L82.6,362.2 L82.6,361.5 L82.6,360.9 L82.6,360.3 L82.7,359.7 L82.8,359.1 L83.0,358.5 L83.0,357.9 L83.4,357.2 L84.3,356.6 L85.9,356.0 L86.1,355.4 L86.2,354.8 L86.3,354.2 L87.3,353.5 L88.6,352.9 L88.9,352.3 L89.0,351.7 L89.3,351.1 L89.4,350.5 L89.8,349.9 L90.2,349.2 L90.2,348.6 L90.3,348.0 L91.1,347.4 L91.4,346.8 L91.5,346.2 L91.5,345.6 L92.1,344.9 L92.2,344.3 L92.4,343.7 L93.0,343.1 L93.2,342.5 L93.2,341.9 L93.7,341.3 L95.2,340.6 L95.3,340.0 L95.3,339.4 L96.0,338.8 L96.6,338.2 L97.0,337.6 L97.8,336.9 L100.1,336.3 L104.3,335.7 L104.7,335.1 L106.3,334.5 L107.8,333.9 L108.2,333.3 L108.7,332.6 L110.0,332.0 L110.2,331.4 L111.0,330.8 L113.1,330.2 L115.4,329.6 L115.9,329.0 L116.0,328.3 L116.8,327.7 L116.9,327.1 L117.4,326.5 L117.4,325.9 L117.5,325.3 L118.0,324.7 L118.1,324.0 L118.4,323.4 L118.5,322.8 L119.5,322.2 L120.1,321.6 L121.1,321.0 L121.5,320.4 L123.1,319.7 L123.6,319.1 L124.0,318.5 L125.7,317.9 L126.2,317.3 L127.3,316.7 L127.6,316.0 L127.9,315.4 L128.0,314.8 L128.7,314.2 L128.9,313.6 L129.4,313.0 L130.9,312.4 L130.9,311.7 L131.1,311.1 L131.3,310.5 L131.4,309.9 L132.0,309.3 L132.9,308.7 L133.0,308.1 L133.2,307.4 L133.4,306.8 L134.0,306.2 L134.6,305.6 L134.6,305.0 L134.8,304.4 L134.8,303.8 L135.4,303.1 L136.9,302.5 L138.2,301.9 L138.6,301.3 L140.4,300.7 L140.9,300.1 L143.4,299.4 L144.3,298.8 L145.3,298.2 L147.7,297.6 L148.0,297.0 L149.1,296.4 L151.4,295.8 L151.7,295.1 L151.8,294.5 L153.6,293.9 L153.7,293.3 L154.0,292.7 L154.5,292.1 L155.4,291.5 L156.4,290.8 L156.7,290.2 L157.2,289.6 L157.4,289.0 L158.8,288.4 L160.0,287.8 L160.1,287.2 L161.8,286.5 L162.5,285.9 L163.6,285.3 L163.9,284.7 L164.0,284.1 L168.1,283.5 L168.4,282.8 L168.5,282.2 L168.7,281.6 L170.2,281.0 L170.7,280.4 L170.9,279.8 L171.5,279.2 L172.8,278.5 L172.9,277.9 L174.2,277.3 L177.5,276.7 L178.4,276.1 L179.4,275.5 L181.3,274.9 L182.1,274.2 L186.5,273.6 L191.1,273.0 L191.6,272.4 L191.9,271.8 L192.6,271.2 L193.1,270.6 L193.3,269.9 L194.0,269.3 L194.4,268.7 L194.8,268.1 L196.8,267.5 L197.1,266.9 L197.3,266.2 L198.6,265.6 L201.4,265.0 L204.9,264.4 L207.0,263.8 L208.1,263.2 L208.4,262.6 L208.9,261.9 L209.4,261.3 L209.5,260.7 L209.6,260.1 L210.3,259.5 L210.4,258.9 L212.6,258.3 L213.3,257.6 L214.4,257.0 L214.5,256.4 L214.8,255.8 L215.0,255.2 L216.6,254.6 L219.9,254.0 L220.5,253.3 L220.9,252.7 L221.0,252.1 L221.8,251.5 L224.1,250.9 L224.5,250.3 L224.6,249.6 L225.6,249.0 L226.1,248.4 L226.5,247.8 L227.0,247.2 L229.8,246.6 L231.4,246.0 L231.8,245.3 L232.2,244.7 L233.9,244.1 L234.6,243.5 L237.0,242.9 L237.1,242.3 L238.4,241.7 L239.1,241.0 L240.3,240.4 L240.5,239.8 L241.0,239.2 L241.5,238.6 L241.6,238.0 L242.8,237.4 L242.9,236.7 L245.4,236.1 L245.9,235.5 L247.2,234.9 L248.7,234.3 L249.8,233.7 L250.9,233.1 L251.0,232.4 L252.5,231.8 L252.9,231.2 L254.0,230.6 L254.1,230.0 L254.4,229.4 L255.1,228.7 L255.4,228.1 L255.8,227.5 L255.8,226.9 L257.6,226.3 L257.7,225.7 L257.9,225.1 L257.9,224.4 L258.0,223.8 L258.5,223.2 L258.5,222.6 L259.9,222.0 L261.1,221.4 L261.1,220.8 L264.3,220.1 L268.1,219.5 L269.0,218.9 L269.3,218.3 L271.6,217.7 L272.5,217.1 L272.5,216.5 L272.6,215.8 L272.9,215.2 L273.4,214.6 L274.3,214.0 L276.0,213.4 L276.3,212.8 L276.7,212.1 L277.5,211.5 L279.8,210.9 L280.1,210.3 L281.9,209.7 L283.2,209.1 L284.7,208.5 L284.8,207.8 L285.3,207.2 L285.4,206.6 L286.5,206.0 L286.6,205.4 L287.7,204.8 L288.6,204.2 L288.7,203.5 L289.1,202.9 L290.4,202.3 L293.3,201.7 L293.3,201.1 L294.1,200.5 L294.8,199.9 L295.2,199.2 L295.7,198.6 L297.0,198.0 L297.4,197.4 L301.1,196.8 L301.3,196.2 L302.1,195.5 L302.1,194.9 L302.1,194.3 L302.2,193.7 L302.8,193.1 L303.9,192.5 L304.0,191.9 L305.7,191.2 L305.7,190.6 L306.0,190.0 L308.2,189.4 L308.5,188.8 L312.4,188.2 L313.7,187.6 L314.4,186.9 L315.8,186.3 L315.9,185.7 L316.0,185.1 L318.1,184.5 L318.3,183.9 L318.4,183.3 L319.1,182.6 L319.5,182.0 L320.1,181.4 L320.5,180.8 L321.5,180.2 L322.0,179.6 L323.0,178.9 L323.8,178.3 L324.8,177.7 L325.3,177.1 L326.8,176.5 L327.5,175.9 L327.8,175.3 L328.4,174.6 L330.4,174.0 L330.5,173.4 L333.1,172.8 L334.8,172.2 L338.0,171.6 L338.2,171.0 L338.2,170.3 L340.6,169.7 L342.2,169.1 L342.6,168.5 L343.0,167.9 L343.9,167.3 L344.6,166.7 L346.6,166.0 L349.0,165.4 L351.7,164.8 L352.8,164.2 L352.9,163.6 L353.0,163.0 L357.5,162.4 L359.5,161.7 L362.4,161.1 L365.0,160.5 L365.5,159.9 L365.6,159.3 L366.2,158.7 L373.2,158.0 L374.0,157.4 L376.6,156.8 L376.8,156.2 L377.1,155.6 L378.0,155.0 L378.4,154.4 L379.2,153.7 L379.3,153.1 L383.6,152.5 L385.7,151.9 L386.7,151.3 L387.5,150.7 L393.7,150.1 L395.7,149.4 L398.4,148.8 L399.2,148.2 L400.6,147.6 L400.7,147.0 L402.1,146.4 L402.3,145.8 L404.0,145.1 L405.5,144.5 L405.9,143.9 L406.5,143.3 L411.1,142.7 L414.8,142.1 L415.7,141.4 L418.5,140.8 L420.9,140.2 L421.5,139.6 L422.2,139.0 L422.8,138.4 L423.3,137.8 L427.4,137.1 L430.7,136.5 L433.3,135.9 L437.3,135.3 L437.4,134.7 L442.0,134.1 L442.3,133.5 L442.3,132.8 L443.1,132.2 L443.4,131.6 L444.2,131.0 L446.4,130.4 L446.7,129.8 L447.2,129.2 L447.6,128.5 L448.6,127.9 L448.6,127.3 L449.0,126.7 L450.8,126.1 L451.0,125.5 L451.4,124.8 L452.8,124.2 L453.1,123.6 L454.0,123.0 L454.0,122.4 L454.4,121.8 L454.7,121.2 L455.3,120.5 L455.3,119.9 L455.8,119.3 L456.1,118.7 L456.6,118.1 L460.0,117.5 L460.0,116.9 L463.7,116.2 L464.6,115.6 L468.2,115.0 L468.3,114.4 L468.7,113.8 L469.4,113.2 L469.5,112.6 L470.0,111.9 L470.1,111.3 L476.1,110.7 L476.2,110.1 L481.1,109.5 L482.2,108.9 L486.4,108.2 L492.9,107.6 L494.0,107.0 L494.4,106.4 L494.7,105.8 L494.8,105.2 L495.7,104.6 L504.4,103.9 L509.6,103.3 L517.0,102.7 L517.4,102.1 L521.9,101.5 L524.0,100.9 L524.5,100.3 L526.8,99.6 L527.8,99.0 L529.8,98.4 L532.5,97.8 L533.1,97.2 L534.5,96.6 L536.9,96.0 L537.1,95.3 L539.9,94.7 L542.4,94.1 L545.7,93.5 L549.8,92.9 L550.4,92.3 L552.1,91.6 L554.6,91.0 L556.2,90.4 L563.2,89.8 L569.0,89.2 L575.8,88.6 L577.0,88.0 L581.5,87.3 L584.4,86.7 L588.0,86.1 L590.1,85.5 L596.3,84.9 L599.0,84.3 L600.0,83.7 L608.1,83.0 L608.4,82.4 L612.8,81.8 L613.3,81.2 L614.1,80.6 L618.7,80.0 L620.4,79.4 L620.5,78.7 L622.2,78.1 L624.8,77.5 L627.4,76.9 L635.6,76.3 L638.6,75.7 L642.5,75.1 L644.6,74.4 L649.3,73.8 L654.9,73.2 L657.9,72.6 L661.8,72.0 L663.0,71.4 L665.5,70.7 L665.7,70.1 L667.8,69.5 L669.1,68.9 L671.0,68.3 L672.9,67.7 L679.4,67.1 L682.8,66.4 L684.2,65.8 L684.6,65.2 L689.9,64.6 L693.5,64.0 L693.8,63.4 L700.6,62.8 L703.0,62.1 L703.3,61.5 L704.3,60.9 L707.8,60.3 L716.0,59.7 L727.2,59.1 L728.3,58.5 L729.6,57.8 L740.5,57.2 L744.8,56.6 L745.6,56.0 L745.9,55.4 L746.3,54.8 L746.7,54.1 L747.8,53.5 L757.7,52.9 L758.2,52.3 L763.6,51.7 L769.4,51.1 L770.2,50.5 L772.0,49.8 L775.3,49.2 L776.0,48.6 L776.0,48.0 L776.0,48.0" fill="none" stroke="#4f8ff7" stroke-width="2.5" stroke-linejoin="round"/>
<circle cx="776.0" cy="48.0" r="4" fill="#4f8ff7"/>
<text x="64.0" y="388" fill="#e6edf3" font-size="13" text-anchor="middle">Sep 23, 2026</text><text x="301.3" y="388" fill="#e6edf3" font-size="13" text-anchor="middle">Sep 28, 2026</text><text x="538.7" y="388" fill="#e6edf3" font-size="13" text-anchor="middle">Oct 04, 2026</text><text x="776.0" y="388" fill="#e6edf3" font-size="13" text-anchor="middle">Oct 10, 2026</text>
</svg>