<svg xmlns="http://www.w3.org/2000/svg" viewBox="0 0 800 420" font-family="Segoe UI, sans-serif">
<rect width="800" height="420" fill="#ffffff" rx="8"/>
<text x="64" y="30" fill="#1f2328" font-size="17" font-weight="700">★ Star History — timoncool/YuE2-Studio</text>
<text x="776" y="30" fill="#1f2328" font-size="14" text-anchor="end">499 stars · updated 2026-10-09</text>
<line x1="64" y1="364.0" x2="776" y2="364.0" stroke="#d1d9e0" stroke-width="1"/><text x="54" y="368.0" fill="#1f2328" font-size="13" text-anchor="end">0</text><line x1="64" y1="284.8" x2="776" y2="284.8" stroke="#d1d9e0" stroke-width="1"/><text x="54" y="288.8" fill="#1f2328" font-size="13" text-anchor="end">125</text><line x1="64" y1="205.7" x2="776" y2="205.7" stroke="#d1d9e0" stroke-width="1"/><text x="54" y="209.7" fill="#1f2328" font-size="13" text-anchor="end">250</text><line x1="64" y1="127.2" x2="776" y2="127.2" stroke="#d1d9e0" stroke-width="1"/><text x="54" y="131.2" fill="#1f2328" font-size="13" text-anchor="end">374</text><line x1="64" y1="48.0" x2="776" y2="48.0" stroke="#d1d9e0" stroke-width="1"/><text x="54" y="52.0" fill="#1f2328" font-size="13" text-anchor="end">499</text>
<path d="M64.0,364.0 L64.0,363.4 L69.6,362.7 L83.5,362.1 L83.6,361.5 L83.6,360.8 L83.6,360.2 L83.6,359.6 L83.8,358.9 L84.0,358.3 L84.0,357.7 L84.5,357.0 L85.4,356.4 L87.1,355.8 L87.3,355.1 L87.3,354.5 L87.4,353.9 L88.5,353.2 L89.8,352.6 L90.3,352.0 L90.3,351.3 L90.7,350.7 L90.8,350.1 L91.1,349.4 L91.6,348.8 L91.6,348.2 L91.7,347.5 L92.5,346.9 L92.8,346.3 L92.9,345.6 L92.9,345.0 L93.6,344.4 L93.7,343.7 L93.9,343.1 L94.5,342.5 L94.7,341.8 L94.8,341.2 L95.3,340.6 L96.8,339.9 L97.0,339.3 L97.0,338.7 L97.7,338.0 L98.3,337.4 L98.7,336.8 L99.6,336.1 L102.0,335.5 L106.4,334.9 L106.9,334.2 L108.5,333.6 L110.1,333.0 L110.5,332.3 L111.0,331.7 L112.4,331.1 L112.7,330.4 L113.5,329.8 L115.7,329.2 L118.1,328.5 L118.6,327.9 L118.7,327.3 L119.6,326.6 L119.7,326.0 L120.2,325.4 L120.2,324.7 L120.3,324.1 L120.9,323.5 L120.9,322.8 L121.3,322.2 L121.4,321.6 L122.4,320.9 L123.0,320.3 L124.1,319.7 L124.5,319.0 L126.2,318.4 L126.7,317.8 L127.2,317.1 L129.0,316.5 L129.4,315.9 L130.6,315.2 L130.9,314.6 L131.2,314.0 L131.4,313.3 L132.1,312.7 L132.3,312.1 L132.8,311.4 L134.4,310.8 L134.4,310.2 L134.6,309.5 L134.8,308.9 L135.0,308.3 L135.6,307.6 L136.5,307.0 L136.7,306.4 L136.8,305.7 L137.0,305.1 L137.7,304.5 L138.3,303.8 L138.4,303.2 L138.5,302.6 L138.6,301.9 L139.2,301.3 L140.7,300.7 L142.1,300.0 L142.5,299.4 L144.4,298.8 L144.9,298.1 L147.6,297.5 L148.5,296.9 L149.6,296.2 L152.1,295.6 L152.4,295.0 L153.6,294.3 L156.0,293.7 L156.3,293.1 L156.4,292.4 L158.3,291.8 L158.4,291.2 L158.7,290.5 L159.2,289.9 L160.2,289.3 L161.3,288.6 L161.6,288.0 L162.1,287.4 L162.3,286.7 L163.8,286.1 L165.0,285.5 L165.2,284.8 L167.0,284.2 L167.6,283.6 L168.8,282.9 L169.2,282.3 L169.3,281.7 L173.5,281.0 L173.9,280.4 L174.0,279.8 L174.2,279.1 L175.8,278.5 L176.3,277.9 L176.5,277.2 L177.1,276.6 L178.5,276.0 L178.6,275.3 L180.0,274.7 L183.5,274.1 L184.4,273.4 L185.5,272.8 L187.5,272.2 L188.3,271.5 L193.0,270.9 L197.8,270.3 L198.3,269.6 L198.6,269.0 L199.3,268.4 L199.9,267.7 L200.1,267.1 L200.8,266.5 L201.2,265.8 L201.7,265.2 L203.8,264.6 L204.1,263.9 L204.3,263.3 L205.6,262.7 L208.7,262.0 L212.3,261.4 L214.5,260.8 L215.7,260.1 L216.0,259.5 L216.6,258.9 L217.0,258.2 L217.2,257.6 L217.3,257.0 L218.0,256.3 L218.1,255.7 L220.5,255.1 L221.2,254.4 L222.3,253.8 L222.4,253.2 L222.8,252.5 L222.9,251.9 L224.6,251.3 L228.1,250.6 L228.7,250.0 L229.2,249.4 L229.3,248.7 L230.1,248.1 L232.5,247.5 L232.9,246.8 L233.1,246.2 L234.0,245.6 L234.6,244.9 L235.0,244.3 L235.6,243.7 L238.5,243.0 L240.2,242.4 L240.6,241.8 L241.1,241.1 L242.8,240.5 L243.6,239.9 L246.1,239.2 L246.1,238.6 L247.6,238.0 L248.2,237.3 L249.5,236.7 L249.8,236.1 L250.3,235.4 L250.8,234.8 L250.9,234.2 L252.2,233.5 L252.3,232.9 L255.0,232.3 L255.5,231.6 L256.9,231.0 L258.4,230.4 L259.5,229.7 L260.7,229.1 L260.8,228.5 L262.4,227.8 L262.8,227.2 L264.0,226.6 L264.1,225.9 L264.4,225.3 L265.1,224.7 L265.4,224.0 L265.9,223.4 L265.9,222.8 L267.8,222.1 L267.9,221.5 L268.1,220.9 L268.1,220.2 L268.1,219.6 L268.7,219.0 L268.7,218.3 L270.1,217.7 L271.4,217.1 L271.4,216.4 L274.8,215.8 L278.8,215.2 L279.8,214.5 L280.1,213.9 L282.5,213.3 L283.5,212.6 L283.5,212.0 L283.6,211.4 L283.9,210.7 L284.4,210.1 L285.3,209.5 L287.1,208.8 L287.5,208.2 L287.9,207.6 L288.7,206.9 L291.1,206.3 L291.5,205.7 L293.3,205.1 L294.7,204.4 L296.3,203.8 L296.4,203.2 L296.9,202.5 L297.0,201.9 L298.1,201.3 L298.3,200.6 L299.4,200.0 L300.4,199.4 L300.5,198.7 L300.9,198.1 L302.2,197.5 L305.3,196.8 L305.4,196.2 L306.2,195.6 L306.9,194.9 L307.4,194.3 L307.8,193.7 L309.2,193.0 L309.6,192.4 L313.6,191.8 L313.8,191.1 L314.6,190.5 L314.6,189.9 L314.6,189.2 L314.7,188.6 L315.4,188.0 L316.5,187.3 L316.5,186.7 L318.4,186.1 L318.4,185.4 L318.7,184.8 L321.0,184.2 L321.3,183.5 L325.4,182.9 L326.8,182.3 L327.6,181.6 L329.0,181.0 L329.1,180.4 L329.2,179.7 L331.4,179.1 L331.7,178.5 L331.7,177.8 L332.5,177.2 L332.9,176.6 L333.5,175.9 L334.0,175.3 L335.0,174.7 L335.6,174.0 L336.6,173.4 L337.4,172.8 L338.5,172.1 L339.0,171.5 L340.6,170.9 L341.4,170.2 L341.6,169.6 L342.2,169.0 L344.4,168.3 L344.4,167.7 L347.2,167.1 L349.0,166.4 L352.4,165.8 L352.5,165.2 L352.6,164.5 L355.1,163.9 L356.8,163.3 L357.2,162.6 L357.6,162.0 L358.6,161.4 L359.3,160.7 L361.4,160.1 L364.0,159.5 L366.8,158.8 L368.0,158.2 L368.1,157.6 L368.2,156.9 L372.9,156.3 L375.0,155.7 L378.0,155.0 L380.8,154.4 L381.3,153.8 L381.5,153.1 L382.0,152.5 L389.5,151.9 L390.2,151.2 L393.0,150.6 L393.2,150.0 L393.5,149.3 L394.5,148.7 L394.9,148.1 L395.8,147.4 L395.9,146.8 L400.4,146.2 L402.6,145.5 L403.7,144.9 L404.5,144.3 L411.0,143.6 L413.1,143.0 L415.9,142.4 L416.8,141.7 L418.2,141.1 L418.4,140.5 L419.8,139.8 L420.1,139.2 L421.9,138.6 L423.4,137.9 L423.9,137.3 L424.5,136.7 L429.3,136.0 L433.2,135.4 L434.2,134.8 L437.1,134.1 L439.6,133.5 L440.3,132.9 L441.0,132.2 L441.6,131.6 L442.1,131.0 L446.4,130.3 L449.9,129.7 L452.7,129.1 L456.9,128.4 L457.0,127.8 L461.9,127.2 L462.1,126.5 L462.2,125.9 L463.0,125.3 L463.3,124.6 L464.1,124.0 L466.5,123.4 L466.8,122.7 L467.3,122.1 L467.8,121.5 L468.8,120.8 L468.8,120.2 L469.2,119.6 L471.1,118.9 L471.3,118.3 L471.7,117.7 L473.2,117.0 L473.5,116.4 L474.5,115.8 L474.5,115.1 L474.9,114.5 L475.2,113.9 L475.8,113.2 L475.8,112.6 L476.3,112.0 L476.6,111.3 L477.2,110.7 L480.8,110.1 L480.8,109.4 L484.7,108.8 L485.6,108.2 L489.4,107.5 L489.5,106.9 L490.0,106.3 L490.7,105.6 L490.8,105.0 L491.3,104.4 L491.4,103.7 L497.7,103.1 L497.8,102.5 L503.0,101.8 L504.1,101.2 L508.6,100.6 L515.4,99.9 L516.6,99.3 L517.0,98.7 L517.3,98.0 L517.4,97.4 L518.4,96.8 L527.5,96.1 L533.0,95.5 L540.7,94.9 L541.2,94.2 L545.9,93.6 L548.2,93.0 L548.6,92.3 L551.1,91.7 L552.2,91.1 L554.2,90.4 L557.1,89.8 L557.7,89.2 L559.2,88.5 L561.8,87.9 L562.0,87.3 L564.9,86.6 L567.5,86.0 L571.0,85.4 L575.3,84.7 L575.9,84.1 L577.7,83.5 L580.4,82.8 L582.0,82.2 L589.4,81.6 L595.5,80.9 L602.7,80.3 L604.0,79.7 L608.7,79.0 L611.7,78.4 L615.5,77.8 L617.7,77.1 L624.3,76.5 L627.1,75.9 L628.2,75.2 L636.6,74.6 L637.0,74.0 L641.6,73.3 L642.1,72.7 L643.0,72.1 L647.8,71.4 L649.6,70.8 L649.7,70.2 L651.5,69.5 L654.2,68.9 L657.0,68.3 L665.6,67.6 L668.7,67.0 L672.8,66.4 L675.1,65.7 L680.0,65.1 L685.9,64.5 L689.0,63.8 L693.1,63.2 L694.5,62.6 L697.1,61.9 L697.3,61.3 L699.5,60.7 L700.9,60.0 L702.8,59.4 L704.9,58.8 L711.7,58.1 L715.2,57.5 L716.8,56.9 L717.2,56.2 L722.7,55.6 L726.6,55.0 L726.8,54.3 L734.0,53.7 L736.6,53.1 L736.8,52.4 L737.9,51.8 L741.6,51.2 L750.2,50.5 L762.0,49.9 L763.2,49.3 L764.5,48.6 L776.0,48.0 L776.0,48.0" fill="none" stroke="#0969da" stroke-width="2.5" stroke-linejoin="round"/>
<circle cx="776.0" cy="48.0" r="4" fill="#0969da"/>
<text x="64.0" y="388" fill="#1f2328" font-size="13" text-anchor="middle">Sep 23, 2026</text><text x="301.3" y="388" fill="#1f2328" font-size="13" text-anchor="middle">Sep 28, 2026</text><text x="538.7" y="388" fill="#1f2328" font-size="13" text-anchor="middle">Oct 04, 2026</text><text x="776.0" y="388" fill="#1f2328" font-size="13" text-anchor="middle">Oct 09, 2026</text>
</svg>