<svg xmlns="http://www.w3.org/2000/svg" viewBox="0 0 800 420" font-family="Segoe UI, sans-serif">
<rect width="800" height="420" fill="#ffffff" rx="8"/>
<text x="64" y="30" fill="#1f2328" font-size="17" font-weight="700">★ Star History — timoncool/YuE2-Studio</text>
<text x="776" y="30" fill="#1f2328" font-size="14" text-anchor="end">474 stars · updated 2026-10-07</text>
<line x1="64" y1="364.0" x2="776" y2="364.0" stroke="#d1d9e0" stroke-width="1"/><text x="54" y="368.0" fill="#1f2328" font-size="13" text-anchor="end">0</text><line x1="64" y1="285.3" x2="776" y2="285.3" stroke="#d1d9e0" stroke-width="1"/><text x="54" y="289.3" fill="#1f2328" font-size="13" text-anchor="end">118</text><line x1="64" y1="206.0" x2="776" y2="206.0" stroke="#d1d9e0" stroke-width="1"/><text x="54" y="210.0" fill="#1f2328" font-size="13" text-anchor="end">237</text><line x1="64" y1="126.7" x2="776" y2="126.7" stroke="#d1d9e0" stroke-width="1"/><text x="54" y="130.7" fill="#1f2328" font-size="13" text-anchor="end">356</text><line x1="64" y1="48.0" x2="776" y2="48.0" stroke="#d1d9e0" stroke-width="1"/><text x="54" y="52.0" fill="#1f2328" font-size="13" text-anchor="end">474</text>
<path d="M64.0,364.0 L64.0,363.3 L70.4,362.7 L86.2,362.0 L86.3,361.3 L86.3,360.7 L86.3,360.0 L86.4,359.3 L86.5,358.7 L86.8,358.0 L86.8,357.3 L87.3,356.7 L88.3,356.0 L90.3,355.3 L90.5,354.7 L90.6,354.0 L90.7,353.3 L91.9,352.7 L93.4,352.0 L93.9,351.3 L94.0,350.7 L94.4,350.0 L94.5,349.3 L94.9,348.7 L95.4,348.0 L95.5,347.3 L95.5,346.7 L96.5,346.0 L96.9,345.3 L97.0,344.7 L97.0,344.0 L97.7,343.3 L97.8,342.7 L98.1,342.0 L98.7,341.3 L99.0,340.7 L99.0,340.0 L99.7,339.3 L101.4,338.7 L101.5,338.0 L101.6,337.3 L102.3,336.7 L103.1,336.0 L103.6,335.3 L104.6,334.7 L107.3,334.0 L112.3,333.3 L112.8,332.7 L114.7,332.0 L116.6,331.3 L116.9,330.7 L117.6,330.0 L119.2,329.3 L119.4,328.7 L120.4,328.0 L122.9,327.3 L125.6,326.7 L126.2,326.0 L126.4,325.3 L127.3,324.7 L127.5,324.0 L128.0,323.3 L128.0,322.7 L128.1,322.0 L128.8,321.3 L128.8,320.7 L129.2,320.0 L129.4,319.3 L130.5,318.7 L131.2,318.0 L132.4,317.3 L133.0,316.7 L134.9,316.0 L135.4,315.3 L136.0,314.7 L138.0,314.0 L138.5,313.3 L139.9,312.7 L140.2,312.0 L140.6,311.3 L140.8,310.7 L141.6,310.0 L141.8,309.3 L142.4,308.7 L144.2,308.0 L144.2,307.3 L144.5,306.7 L144.7,306.0 L144.8,305.3 L145.5,304.7 L146.6,304.0 L146.8,303.3 L147.0,302.7 L147.2,302.0 L147.9,301.3 L148.7,300.7 L148.7,300.0 L148.8,299.3 L148.9,298.7 L149.6,298.0 L151.4,297.3 L153.0,296.7 L153.5,296.0 L155.6,295.3 L156.2,294.7 L159.3,294.0 L160.3,293.3 L161.5,292.7 L164.4,292.0 L164.7,291.3 L166.0,290.7 L168.8,290.0 L169.2,289.3 L169.2,288.7 L171.4,288.0 L171.5,287.3 L171.8,286.7 L172.5,286.0 L173.6,285.3 L174.8,284.7 L175.2,284.0 L175.7,283.3 L175.9,282.7 L177.7,282.0 L179.1,281.3 L179.2,280.7 L181.3,280.0 L182.0,279.3 L183.4,278.7 L183.8,278.0 L183.9,277.3 L188.8,276.7 L189.2,276.0 L189.3,275.3 L189.5,274.7 L191.3,274.0 L191.9,273.3 L192.1,272.7 L192.8,272.0 L194.4,271.3 L194.5,270.7 L196.1,270.0 L200.1,269.3 L201.1,268.7 L202.3,268.0 L204.7,267.3 L205.5,266.7 L210.9,266.0 L216.4,265.3 L217.0,264.7 L217.4,264.0 L218.1,263.3 L218.8,262.7 L219.0,262.0 L219.8,261.3 L220.3,260.7 L220.8,260.0 L223.2,259.3 L223.6,258.7 L223.8,258.0 L225.3,257.3 L228.8,256.7 L232.9,256.0 L235.5,255.3 L236.8,254.7 L237.1,254.0 L237.8,253.3 L238.3,252.7 L238.5,252.0 L238.6,251.3 L239.5,250.7 L239.5,250.0 L242.2,249.3 L243.0,248.7 L244.4,248.0 L244.5,247.3 L244.9,246.7 L245.0,246.0 L246.9,245.3 L250.9,244.7 L251.6,244.0 L252.1,243.3 L252.3,242.7 L253.2,242.0 L256.0,241.3 L256.4,240.7 L256.6,240.0 L257.7,239.3 L258.3,238.7 L258.8,238.0 L259.5,237.3 L262.7,236.7 L264.7,236.0 L265.2,235.3 L265.7,234.7 L267.7,234.0 L268.5,233.3 L271.4,232.7 L271.5,232.0 L273.1,231.3 L273.9,230.7 L275.3,230.0 L275.6,229.3 L276.2,228.7 L276.8,228.0 L276.9,227.3 L278.3,226.7 L278.5,226.0 L281.5,225.3 L282.1,224.7 L283.7,224.0 L285.4,223.3 L286.7,222.7 L288.1,222.0 L288.2,221.3 L290.0,220.7 L290.4,220.0 L291.8,219.3 L291.9,218.7 L292.2,218.0 L293.1,217.3 L293.4,216.7 L293.9,216.0 L294.0,215.3 L296.1,214.7 L296.2,214.0 L296.4,213.3 L296.5,212.7 L296.5,212.0 L297.2,211.3 L297.2,210.7 L298.8,210.0 L300.2,209.3 L300.3,208.7 L304.2,208.0 L308.7,207.3 L309.8,206.7 L310.1,206.0 L312.9,205.3 L314.0,204.7 L314.0,204.0 L314.1,203.3 L314.5,202.7 L315.1,202.0 L316.1,201.3 L318.1,200.7 L318.6,200.0 L319.0,199.3 L320.0,198.7 L322.7,198.0 L323.1,197.3 L325.3,196.7 L326.8,196.0 L328.6,195.3 L328.7,194.7 L329.3,194.0 L329.5,193.3 L330.7,192.7 L330.8,192.0 L332.2,191.3 L333.3,190.7 L333.4,190.0 L333.9,189.3 L335.4,188.7 L338.9,188.0 L339.0,187.3 L339.9,186.7 L340.7,186.0 L341.2,185.3 L341.7,184.7 L343.4,184.0 L343.8,183.3 L348.3,182.7 L348.5,182.0 L349.4,181.3 L349.5,180.7 L349.5,180.0 L349.6,179.3 L350.3,178.7 L351.7,178.0 L351.7,177.3 L353.7,176.7 L353.8,176.0 L354.1,175.3 L356.7,174.7 L357.1,174.0 L361.8,173.3 L363.4,172.7 L364.3,172.0 L365.9,171.3 L366.0,170.7 L366.1,170.0 L368.6,169.3 L368.9,168.7 L369.0,168.0 L369.8,167.3 L370.3,166.7 L371.0,166.0 L371.6,165.3 L372.7,164.7 L373.3,164.0 L374.5,163.3 L375.5,162.7 L376.7,162.0 L377.3,161.3 L379.1,160.7 L379.9,160.0 L380.2,159.3 L381.0,158.7 L383.4,158.0 L383.5,157.3 L386.6,156.7 L388.7,156.0 L392.5,155.3 L392.7,154.7 L392.8,154.0 L395.6,153.3 L397.6,152.7 L398.0,152.0 L398.5,151.3 L399.6,150.7 L400.4,150.0 L402.8,149.3 L405.7,148.7 L408.9,148.0 L410.3,147.3 L410.4,146.7 L410.5,146.0 L415.9,145.3 L418.3,144.7 L421.7,144.0 L424.9,143.3 L425.5,142.7 L425.6,142.0 L426.3,141.3 L434.7,140.7 L435.6,140.0 L438.8,139.3 L439.0,138.7 L439.4,138.0 L440.4,137.3 L440.9,136.7 L441.9,136.0 L442.1,135.3 L447.2,134.7 L449.7,134.0 L450.9,133.3 L451.8,132.7 L459.2,132.0 L461.6,131.3 L464.9,130.7 L465.9,130.0 L467.5,129.3 L467.7,128.7 L469.3,128.0 L469.6,127.3 L471.7,126.7 L473.4,126.0 L473.9,125.3 L474.7,124.7 L480.1,124.0 L484.5,123.3 L485.7,122.7 L489.0,122.0 L491.8,121.3 L492.7,120.7 L493.5,120.0 L494.2,119.3 L494.8,118.7 L499.6,118.0 L503.6,117.3 L506.8,116.7 L511.6,116.0 L511.7,115.3 L517.2,114.7 L517.5,114.0 L517.6,113.3 L518.5,112.7 L518.9,112.0 L519.8,111.3 L522.5,110.7 L522.8,110.0 L523.4,109.3 L523.9,108.7 L525.1,108.0 L525.1,107.3 L525.6,106.7 L527.7,106.0 L528.0,105.3 L528.4,104.7 L530.1,104.0 L530.5,103.3 L531.6,102.7 L531.6,102.0 L532.1,101.3 L532.4,100.7 L533.1,100.0 L533.1,99.3 L533.7,98.7 L534.0,98.0 L534.6,97.3 L538.7,96.7 L538.8,96.0 L543.2,95.3 L544.3,94.7 L548.6,94.0 L548.7,93.3 L549.2,92.7 L550.1,92.0 L550.2,91.3 L550.7,90.7 L550.9,90.0 L558.0,89.3 L558.1,88.7 L564.0,88.0 L565.3,87.3 L570.4,86.7 L578.2,86.0 L579.5,85.3 L580.0,84.7 L580.3,84.0 L580.5,83.3 L581.6,82.7 L592.0,82.0 L598.3,81.3 L607.1,80.7 L607.6,80.0 L613.0,79.3 L615.5,78.7 L616.0,78.0 L618.9,77.3 L620.1,76.7 L622.4,76.0 L625.7,75.3 L626.4,74.7 L628.0,74.0 L631.0,73.3 L631.2,72.7 L634.6,72.0 L637.5,71.3 L641.5,70.7 L646.4,70.0 L647.1,69.3 L649.2,68.7 L652.2,68.0 L654.1,67.3 L662.5,66.7 L669.5,66.0 L677.6,65.3 L679.1,64.7 L684.4,64.0 L687.9,63.3 L692.2,62.7 L694.8,62.0 L702.2,61.3 L705.4,60.7 L706.7,60.0 L716.3,59.3 L716.7,58.7 L721.9,58.0 L722.6,57.3 L723.5,56.7 L729.0,56.0 L731.0,55.3 L731.2,54.7 L733.2,54.0 L736.3,53.3 L739.4,52.7 L749.3,52.0 L752.8,51.3 L757.5,50.7 L760.1,50.0 L765.7,49.3 L772.4,48.7 L776.0,48.0 L776.0,48.0" fill="none" stroke="#0969da" stroke-width="2.5" stroke-linejoin="round"/>
<circle cx="776.0" cy="48.0" r="4" fill="#0969da"/>
<text x="64.0" y="388" fill="#1f2328" font-size="13" text-anchor="middle">Sep 23, 2026</text><text x="301.3" y="388" fill="#1f2328" font-size="13" text-anchor="middle">Sep 27, 2026</text><text x="538.7" y="388" fill="#1f2328" font-size="13" text-anchor="middle">Oct 02, 2026</text><text x="776.0" y="388" fill="#1f2328" font-size="13" text-anchor="middle">Oct 07, 2026</text>
</svg>