<svg xmlns="http://www.w3.org/2000/svg" viewBox="0 0 800 420" font-family="Segoe UI, sans-serif">
<rect width="800" height="420" fill="#ffffff" rx="8"/>
<text x="64" y="30" fill="#1f2328" font-size="17" font-weight="700">★ Star History — timoncool/YuE2-Studio</text>
<text x="776" y="30" fill="#1f2328" font-size="14" text-anchor="end">485 stars · updated 2026-10-08</text>
<line x1="64" y1="364.0" x2="776" y2="364.0" stroke="#d1d9e0" stroke-width="1"/><text x="54" y="368.0" fill="#1f2328" font-size="13" text-anchor="end">0</text><line x1="64" y1="285.2" x2="776" y2="285.2" stroke="#d1d9e0" stroke-width="1"/><text x="54" y="289.2" fill="#1f2328" font-size="13" text-anchor="end">121</text><line x1="64" y1="206.3" x2="776" y2="206.3" stroke="#d1d9e0" stroke-width="1"/><text x="54" y="210.3" fill="#1f2328" font-size="13" text-anchor="end">242</text><line x1="64" y1="126.8" x2="776" y2="126.8" stroke="#d1d9e0" stroke-width="1"/><text x="54" y="130.8" fill="#1f2328" font-size="13" text-anchor="end">364</text><line x1="64" y1="48.0" x2="776" y2="48.0" stroke="#d1d9e0" stroke-width="1"/><text x="54" y="52.0" fill="#1f2328" font-size="13" text-anchor="end">485</text>
<path d="M64.0,364.0 L64.0,363.3 L70.1,362.7 L85.3,362.0 L85.3,361.4 L85.4,360.7 L85.4,360.1 L85.4,359.4 L85.6,358.8 L85.8,358.1 L85.9,357.5 L86.3,356.8 L87.3,356.2 L89.2,355.5 L89.4,354.9 L89.4,354.2 L89.6,353.6 L90.8,352.9 L92.2,352.3 L92.6,351.6 L92.7,351.0 L93.1,350.3 L93.2,349.7 L93.6,349.0 L94.1,348.4 L94.1,347.7 L94.2,347.1 L95.1,346.4 L95.5,345.8 L95.6,345.1 L95.6,344.5 L96.3,343.8 L96.4,343.2 L96.6,342.5 L97.3,341.8 L97.5,341.2 L97.5,340.5 L98.1,339.9 L99.8,339.2 L100.0,338.6 L100.0,337.9 L100.7,337.3 L101.5,336.6 L101.9,336.0 L102.8,335.3 L105.5,334.7 L110.3,334.0 L110.8,333.4 L112.6,332.7 L114.3,332.1 L114.7,331.4 L115.3,330.8 L116.8,330.1 L117.1,329.5 L118.0,328.8 L120.4,328.2 L123.0,327.5 L123.6,326.9 L123.7,326.2 L124.7,325.6 L124.8,324.9 L125.3,324.3 L125.3,323.6 L125.4,323.0 L126.0,322.3 L126.1,321.6 L126.5,321.0 L126.6,320.3 L127.7,319.7 L128.4,319.0 L129.5,318.4 L130.0,317.7 L131.9,317.1 L132.4,316.4 L132.9,315.8 L134.8,315.1 L135.4,314.5 L136.7,313.8 L137.0,313.2 L137.3,312.5 L137.5,311.9 L138.3,311.2 L138.5,310.6 L139.0,309.9 L140.8,309.3 L140.8,308.6 L141.0,308.0 L141.3,307.3 L141.4,306.7 L142.1,306.0 L143.1,305.4 L143.3,304.7 L143.5,304.1 L143.7,303.4 L144.4,302.8 L145.1,302.1 L145.1,301.5 L145.2,300.8 L145.3,300.1 L146.0,299.5 L147.7,298.8 L149.2,298.2 L149.7,297.5 L151.7,296.9 L152.3,296.2 L155.2,295.6 L156.2,294.9 L157.3,294.3 L160.1,293.6 L160.5,293.0 L161.7,292.3 L164.3,291.7 L164.7,291.0 L164.8,290.4 L166.8,289.7 L167.0,289.1 L167.3,288.4 L167.9,287.8 L168.9,287.1 L170.1,286.5 L170.5,285.8 L171.0,285.2 L171.2,284.5 L172.8,283.9 L174.2,283.2 L174.3,282.6 L176.3,281.9 L177.0,281.3 L178.3,280.6 L178.7,280.0 L178.8,279.3 L183.5,278.6 L183.9,278.0 L184.0,277.3 L184.2,276.7 L185.9,276.0 L186.4,275.4 L186.7,274.7 L187.4,274.1 L188.9,273.4 L189.0,272.8 L190.5,272.1 L194.3,271.5 L195.3,270.8 L196.5,270.2 L198.7,269.5 L199.5,268.9 L204.7,268.2 L209.9,267.6 L210.5,266.9 L210.9,266.3 L211.6,265.6 L212.2,265.0 L212.4,264.3 L213.2,263.7 L213.7,263.0 L214.1,262.4 L216.4,261.7 L216.8,261.1 L217.0,260.4 L218.5,259.8 L221.8,259.1 L225.8,258.4 L228.2,257.8 L229.5,257.1 L229.8,256.5 L230.4,255.8 L230.9,255.2 L231.1,254.5 L231.2,253.9 L232.0,253.2 L232.0,252.6 L234.6,251.9 L235.4,251.3 L236.7,250.6 L236.8,250.0 L237.2,249.3 L237.4,248.7 L239.1,248.0 L243.0,247.4 L243.6,246.7 L244.2,246.1 L244.3,245.4 L245.2,244.8 L247.8,244.1 L248.3,243.5 L248.4,242.8 L249.5,242.2 L250.1,241.5 L250.5,240.9 L251.2,240.2 L254.3,239.6 L256.2,238.9 L256.7,238.3 L257.1,237.6 L259.1,236.9 L259.9,236.3 L262.6,235.6 L262.7,235.0 L264.2,234.3 L265.0,233.7 L266.3,233.0 L266.6,232.4 L267.2,231.7 L267.7,231.1 L267.9,230.4 L269.2,229.8 L269.4,229.1 L272.3,228.5 L272.9,227.8 L274.3,227.2 L276.0,226.5 L277.2,225.9 L278.6,225.2 L278.7,224.6 L280.4,223.9 L280.8,223.3 L282.1,222.6 L282.2,222.0 L282.5,221.3 L283.3,220.7 L283.7,220.0 L284.2,219.4 L284.2,218.7 L286.3,218.1 L286.4,217.4 L286.6,216.8 L286.6,216.1 L286.7,215.4 L287.3,214.8 L287.3,214.1 L288.8,213.5 L290.2,212.8 L290.3,212.2 L294.0,211.5 L298.3,210.9 L299.3,210.2 L299.7,209.6 L302.3,208.9 L303.4,208.3 L303.4,207.6 L303.5,207.0 L303.8,206.3 L304.4,205.7 L305.4,205.0 L307.3,204.4 L307.7,203.7 L308.2,203.1 L309.1,202.4 L311.7,201.8 L312.1,201.1 L314.2,200.5 L315.6,199.8 L317.4,199.2 L317.5,198.5 L318.0,197.9 L318.2,197.2 L319.4,196.6 L319.5,195.9 L320.8,195.2 L321.9,194.6 L321.9,193.9 L322.4,193.3 L323.9,192.6 L327.2,192.0 L327.3,191.3 L328.2,190.7 L329.0,190.0 L329.4,189.4 L329.9,188.7 L331.5,188.1 L331.9,187.4 L336.2,186.8 L336.4,186.1 L337.3,185.5 L337.3,184.8 L337.4,184.2 L337.5,183.5 L338.2,182.9 L339.5,182.2 L339.5,181.6 L341.4,180.9 L341.5,180.3 L341.8,179.6 L344.3,179.0 L344.7,178.3 L349.1,177.7 L350.7,177.0 L351.5,176.4 L353.1,175.7 L353.2,175.1 L353.3,174.4 L355.7,173.7 L355.9,173.1 L356.0,172.4 L356.9,171.8 L357.3,171.1 L358.0,170.5 L358.5,169.8 L359.6,169.2 L360.2,168.5 L361.3,167.9 L362.2,167.2 L363.4,166.6 L364.0,165.9 L365.7,165.3 L366.5,164.6 L366.8,164.0 L367.5,163.3 L369.8,162.7 L369.9,162.0 L372.9,161.4 L374.9,160.7 L378.5,160.1 L378.7,159.4 L378.8,158.8 L381.5,158.1 L383.4,157.5 L383.8,156.8 L384.2,156.2 L385.3,155.5 L386.1,154.9 L388.4,154.2 L391.2,153.6 L394.3,152.9 L395.6,152.2 L395.7,151.6 L395.8,150.9 L400.9,150.3 L403.2,149.6 L406.5,149.0 L409.6,148.3 L410.1,147.7 L410.3,147.0 L410.9,146.4 L419.0,145.7 L419.8,145.1 L422.9,144.4 L423.1,143.8 L423.4,143.1 L424.5,142.5 L424.9,141.8 L425.9,141.2 L426.0,140.5 L430.9,139.9 L433.3,139.2 L434.5,138.6 L435.4,137.9 L442.5,137.3 L444.8,136.6 L447.9,136.0 L448.8,135.3 L450.4,134.7 L450.5,134.0 L452.1,133.4 L452.4,132.7 L454.3,132.0 L456.0,131.4 L456.5,130.7 L457.2,130.1 L462.4,129.4 L466.7,128.8 L467.8,128.1 L471.0,127.5 L473.7,126.8 L474.4,126.2 L475.2,125.5 L475.9,124.9 L476.5,124.2 L481.1,123.6 L484.9,122.9 L488.0,122.3 L492.6,121.6 L492.7,121.0 L498.0,120.3 L498.3,119.7 L498.3,119.0 L499.2,118.4 L499.6,117.7 L500.4,117.1 L503.0,116.4 L503.3,115.8 L503.9,115.1 L504.4,114.5 L505.5,113.8 L505.5,113.2 L506.0,112.5 L508.0,111.9 L508.3,111.2 L508.7,110.5 L510.3,109.9 L510.7,109.2 L511.7,108.6 L511.7,107.9 L512.2,107.3 L512.5,106.6 L513.2,106.0 L513.2,105.3 L513.7,104.7 L514.1,104.0 L514.6,103.4 L518.6,102.7 L518.6,102.1 L522.9,101.4 L523.9,100.8 L528.0,100.1 L528.1,99.5 L528.6,98.8 L529.4,98.2 L529.5,97.5 L530.0,96.9 L530.2,96.2 L537.0,95.6 L537.1,94.9 L542.8,94.3 L544.1,93.6 L548.9,93.0 L556.4,92.3 L557.6,91.7 L558.1,91.0 L558.4,90.4 L558.6,89.7 L559.6,89.0 L569.6,88.4 L575.6,87.7 L584.0,87.1 L584.5,86.4 L589.7,85.8 L592.1,85.1 L592.6,84.5 L595.3,83.8 L596.4,83.2 L598.7,82.5 L601.8,81.9 L602.5,81.2 L604.1,80.6 L606.9,79.9 L607.1,79.3 L610.3,78.6 L613.2,78.0 L617.0,77.3 L621.6,76.7 L622.4,76.0 L624.4,75.4 L627.2,74.7 L629.0,74.1 L637.1,73.4 L643.8,72.8 L651.6,72.1 L652.9,71.5 L658.1,70.8 L661.4,70.2 L665.5,69.5 L668.0,68.8 L675.1,68.2 L678.1,67.5 L679.4,66.9 L688.6,66.2 L689.0,65.6 L694.0,64.9 L694.6,64.3 L695.5,63.6 L700.8,63.0 L702.7,62.3 L702.9,61.7 L704.8,61.0 L707.7,60.4 L710.8,59.7 L720.1,59.1 L723.6,58.4 L728.1,57.8 L730.5,57.1 L735.9,56.5 L742.3,55.8 L745.8,55.2 L750.2,54.5 L751.7,53.9 L754.5,53.2 L754.7,52.6 L757.2,51.9 L758.7,51.3 L760.8,50.6 L763.0,50.0 L770.5,49.3 L774.3,48.7 L776.0,48.0 L776.0,48.0" fill="none" stroke="#0969da" stroke-width="2.5" stroke-linejoin="round"/>
<circle cx="776.0" cy="48.0" r="4" fill="#0969da"/>
<text x="64.0" y="388" fill="#1f2328" font-size="13" text-anchor="middle">Sep 23, 2026</text><text x="301.3" y="388" fill="#1f2328" font-size="13" text-anchor="middle">Sep 28, 2026</text><text x="538.7" y="388" fill="#1f2328" font-size="13" text-anchor="middle">Oct 03, 2026</text><text x="776.0" y="388" fill="#1f2328" font-size="13" text-anchor="middle">Oct 08, 2026</text>
</svg>